<?xml version="1.0" standalone="no"?>
<!DOCTYPE svg PUBLIC "-//W3C//DTD SVG 20010904//EN"
 "http://www.w3.org/TR/2001/REC-SVG-20010904/DTD/svg10.dtd">
<svg version="1.0" xmlns="http://www.w3.org/2000/svg"
 width="1024.000000pt" height="1024.000000pt" viewBox="0 0 1024.000000 1024.000000"
 preserveAspectRatio="xMidYMid meet">

<g transform="translate(0.000000,1024.000000) scale(0.100000,-0.100000)"
fill="#00a3e4" stroke="none">
<path d="M4995 8361 c-240 -69 -395 -281 -395 -541 0 -114 25 -197 91 -294 61
-92 122 -146 214 -190 217 -105 475 -62 644 107 145 145 198 371 132 567 -57
168 -208 312 -375 356 -71 19 -237 17 -311 -5z"/>
<path d="M3565 7553 c-165 -22 -287 -132 -331 -298 -49 -183 41 -372 214 -453
75 -35 196 -42 274 -17 111 36 199 112 247 214 23 49 26 68 26 161 0 97 -2
110 -32 172 -55 116 -155 194 -278 217 -59 11 -65 11 -120 4z"/>
<path d="M6640 7549 c-170 -29 -296 -158 -320 -331 -42 -293 223 -517 507
-429 173 54 281 210 271 390 -14 238 -225 409 -458 370z"/>
<path d="M2021 6975 c-71 -20 -110 -45 -165 -106 -66 -73 -89 -143 -84 -249 4
-66 10 -96 30 -135 107 -206 374 -258 542 -104 76 70 109 138 114 243 3 66 0
92 -18 139 -28 75 -112 167 -179 196 -66 28 -171 35 -240 16z"/>
<path d="M8133 6979 c-109 -21 -195 -88 -242 -188 -22 -48 -26 -69 -26 -151 0
-89 2 -99 34 -158 41 -75 94 -125 170 -161 47 -22 70 -26 141 -26 76 0 93 4
152 33 177 87 243 278 159 458 -71 152 -220 227 -388 193z"/>
<path d="M5365 6958 c-104 -24 -317 -26 -430 -4 -44 9 -80 16 -81 16 -1 0 -4
-46 -8 -102 -21 -315 -80 -569 -181 -780 l-34 -72 30 -70 c95 -222 283 -513
474 -731 210 -240 454 -471 789 -744 419 -342 479 -392 636 -527 91 -78 210
-188 265 -243 55 -56 106 -101 114 -101 44 0 469 -189 543 -241 44 -32 48 -26
48 79 0 126 24 393 51 569 62 409 242 1070 397 1458 55 139 178 392 241 499
28 48 50 91 47 93 -3 3 -34 -4 -70 -16 -349 -113 -695 -304 -990 -546 l-129
-106 -44 68 c-158 244 -243 566 -243 918 l0 125 -85 0 c-57 0 -85 -4 -85 -11
0 -26 -95 -210 -156 -302 -80 -120 -221 -269 -314 -333 -39 -26 -70 -51 -70
-55 0 -17 152 -209 246 -311 97 -105 208 -212 495 -476 149 -138 293 -288 367
-384 101 -131 171 -290 192 -433 12 -84 12 -232 0 -260 -6 -14 -9 -16 -9 -4
-1 24 -73 167 -134 264 -123 198 -282 369 -702 755 -428 394 -608 605 -803
945 -144 252 -236 572 -263 916 -6 85 -14 157 -18 160 -3 3 -42 -2 -86 -13z"/>
<path d="M3600 6501 l-75 -6 -3 -160 c-5 -244 -41 -438 -117 -622 l-36 -87 17
-45 c28 -76 123 -261 177 -345 134 -209 385 -472 622 -652 180 -137 409 -280
800 -501 l60 -34 -125 5 c-237 10 -375 49 -624 173 -456 228 -861 580 -1101
957 -45 71 -108 204 -126 267 -7 24 -22 55 -33 68 -59 67 -360 275 -526 364
-142 76 -440 190 -457 174 -3 -4 27 -63 66 -132 78 -136 137 -258 207 -428
166 -400 372 -1168 429 -1597 18 -141 45 -436 45 -507 0 -29 2 -53 5 -53 3 0
36 20 74 45 363 232 1031 411 1740 465 174 13 785 13 983 0 163 -11 404 -36
478 -50 25 -5 46 -7 48 -5 2 1 -59 52 -134 111 -550 437 -725 586 -960 819
-220 220 -371 391 -499 564 -127 173 -239 362 -279 471 -14 37 -28 52 -79 85
-72 46 -213 183 -279 270 -63 84 -131 205 -172 305 -19 47 -39 85 -43 85 -4 1
-42 -1 -83 -4z"/>
<path d="M4850 3524 c-380 -25 -471 -35 -770 -85 -432 -72 -902 -224 -1096
-356 -71 -48 -140 -121 -160 -168 -20 -49 -18 -128 5 -174 51 -99 205 -195
405 -250 102 -29 348 -81 381 -81 13 0 15 23 15 146 l0 146 28 -6 c15 -3 113
-15 217 -26 609 -64 1155 -83 1715 -60 318 13 764 50 1008 84 l92 13 0 -144
c0 -108 3 -143 13 -143 37 0 366 74 446 100 172 56 292 135 337 221 24 47 23
125 -3 174 -42 80 -153 170 -298 242 -323 162 -873 294 -1455 348 -154 14
-755 27 -880 19z"/>
</g>
</svg>
